<svg width="84" height="84" viewBox="0 0 84 84" fill="none" xmlns="http://www.w3.org/2000/svg">
<path d="M40.1793 66.1981C33.8095 65.8969 27.8005 63.1521 23.4006 58.5341C19.0006 53.9161 16.5478 47.7798 16.5517 41.3997C16.5517 27.6964 27.6828 16.5599 41.3793 16.5599C54.7035 16.5599 65.5448 27.034 66.1655 40.1991L57.4759 37.5909C56.7995 34.721 55.3694 32.0839 53.3332 29.9522C51.2971 27.8204 48.7288 26.2715 45.894 25.4653C43.0591 24.6592 40.0605 24.6251 37.2081 25.3667C34.3557 26.1083 31.753 27.5986 29.669 29.6836C27.5851 31.7686 26.0955 34.3726 25.3542 37.2264C24.613 40.0802 24.647 43.0803 25.4528 45.9166C26.2585 48.7529 27.8067 51.3224 29.9374 53.3595C32.0681 55.3967 34.7039 56.8275 37.5724 57.5042L40.1793 66.1981ZM82.7586 41.3997C82.7586 42.6417 82.7172 43.8837 82.5931 45.1257L74.4414 42.6831C74.4828 42.2691 74.4828 41.8137 74.4828 41.3997C74.4828 23.101 59.669 8.27994 41.3793 8.27994C23.0897 8.27994 8.27586 23.101 8.27586 41.3997C8.27586 59.6984 23.0897 74.5195 41.3793 74.5195C41.7931 74.5195 42.2483 74.5195 42.6621 74.4781L45.1035 82.6338C43.8621 82.758 42.6207 82.7994 41.3793 82.7994C18.5379 82.7994 0 64.2523 0 41.3997C0 18.5471 18.5379 0 41.3793 0C64.2207 0 82.7586 18.5471 82.7586 41.3997ZM67.1586 59.036L76.5517 55.8896C78.4552 55.2686 78.4138 52.5362 76.5104 51.9566L45.0621 42.5175C43.4897 42.0621 42 43.5111 42.4966 45.0843L51.931 76.5481C52.5103 78.4938 55.2414 78.5352 55.8621 76.5895L59.0069 67.1917L75.1862 83.379C76.0138 84.207 77.2966 84.207 78.1241 83.379L83.3793 78.1213C84.2069 77.2933 84.2069 76.0099 83.3793 75.1819L67.1586 59.036Z" fill="#C9C9C9"/>
</svg>
