<svg width="0" height="0" viewBox="0 0 99 99" fill="none" xmlns="http://www.w3.org/2000/svg">
<path d="M78.7271 0H68.8862V9.84088H59.0453V19.6818H49.2044V29.5226H39.3635V39.3635H29.5226V49.2044H19.6818V59.0453H9.84088V68.8862H0V98.4088H29.5226V88.5679H39.3635V78.7271H49.2044V68.8862H59.0453V59.0453H68.8862V49.2044H78.7271V39.3635H88.5679V29.5226H98.4088V19.6818H88.5679V9.84088H78.7271V0ZM78.7271 39.3635H68.8862V49.2044H59.0453V59.0453H49.2044V68.8862H39.3635V78.7271H29.5226V68.8862H19.6818V59.0453H29.5226V49.2044H39.3635V39.3635H49.2044V29.5226H59.0453V19.6818H68.8862V29.5226H78.7271V39.3635ZM19.6818 68.8862H9.84088V88.5679H29.5226V78.7271H19.6818V68.8862Z" fill="#D9D9D9"/>
</svg>